<svg xmlns="http://www.w3.org/2000/svg" width="100" height="63" fill="none"><g fill="#2D1310" clip-path="url(#a)"><path d="m99.647 23.544-.059-.06a22 22 0 0 0-3.355-7.945q-.089-.177-.353-.177a.8.8 0 0 0-.177-.235c-.059-.059-.176-.118-.353-.059-.824.236-1.53.177-2.119-.235-1.824-1.236-2.236-5.239-2.354-6.534a.4.4 0 0 0-.235-.353c-.118-.059-.236-.059-.412 0-2.885-2.766-6.416-4.532-10.36-5.12-.235-.06-.412.058-.47.235-1.707.765-3.826.647-5.827.589-.589 0-1.119-.06-1.707-.06h-7.652c-5.12 0-10.3-.117-15.362-.235-10.3-.294-20.659-.824-30.9-1.589A940 940 0 0 1 1 .353S1 .295.94.295c0-.06-.058-.06-.058-.118C.706-.06.412-.06.177.118 0 .236-.06.53.117.824c0 .06 0 .118.06.177C.059 1.06 0 1.236 0 1.354c.589 4.473.765 9.064.589 13.596-.06.118-.118.236-.06.354.06.117.118.176.295.235a.36.36 0 0 0 .412.059c1.942.588 1.766 4.12 1.707 4.473-.118 1.413-.648 2.472-1.53 3.296-.118.059-.236.118-.295.177l-.059.058c-.058.06-.117.06-.176.118-.118.118-.177.236-.118.412.059.118.177.177.294.236l.53 14.126c0 .176.059.294.236.412 0 .117 0 .235.058.353.06.176.177.235.354.294 4.296.942 8.534 2.296 12.654 3.59 5.18 1.648 10.595 3.355 16.068 4.297a.54.54 0 0 0 .471-.235c.118-.177.236-.354.412-.589 2.296-.589 5.003-.53 7.475.177 1.177.353 2.12 1.059 3.179 1.824.53.412 1.059.824 1.648 1.295.059.059.235.177.412.294.235.177.588.412.824.589 0 .118.058.235.117.353.177.118.236.235.471.235.118 0 .177 0 .294-.058a.45.45 0 0 0 .236.117c5.356.589 10.594 2.355 15.656 4.003 1.236.412 2.531.824 3.767 1.236l8.417 2.648c.059.06.176.06.294.06l8.358 2.648c.059.059.118.059.177.059l2.59.824h.176a.45.45 0 0 0 .294-.118c.118-.059.177-.235.177-.353.059-6.121 1.766-12.066 5.062-17.246.058-.117.117-.235.058-.353.118 0 .177-.059.236-.117a.46.46 0 0 0 .118-.471c-.824-3.237 1-6.004 3.06-8.476.118 0 .236.059.353.059.118 0 .236 0 .353-.118.118-.059.177-.235.177-.353.177-2.472 1.236-4.709 2.413-6.945.118-.236.236-.471.353-.648.354-.706.766-1.412 1.06-2.118.294-.59.588-1.354 0-2.12M87.522 37.199c-1.236 2.648.589 5.768 2.766 7.828-3.06 5.062-4.826 10.83-4.944 16.716l-.47-.177a80 80 0 0 1-.354-5.12.38.38 0 0 0-.353-.354c-.235 0-.47.177-.412.412.059 1.53.177 3.12.294 4.768l-.53-.177c-.176-1.942-.352-3.884-.411-5.71 0-.235-.177-.352-.412-.352-.236 0-.412.176-.412.47.059 1.708.235 3.473.412 5.357l-.53-.177c-.53-3.355-.883-6.769-1.118-10.182a.4.4 0 0 0-.236-.353.5.5 0 0 0-.412 0q-.176.087-.176.353c.235 3.296.588 6.592 1.118 9.888l-.942-.295a216 216 0 0 1-.883-8.18.32.32 0 0 0-.176-.295.36.36 0 0 0-.412.059c-.118.059-.177.235-.177.353.177 2.53.471 5.12.824 7.77l-.47-.119c-.59-3.354-1.06-6.768-1.295-10.123 0-.235-.177-.353-.413-.353-.235 0-.411.176-.411.47.235 3.238.706 6.475 1.236 9.712l-1.178-.353c-.235-1.766-.412-3.531-.47-5.238 0-.295-.236-.412-.471-.412-.236 0-.354.176-.354.353.06 1.648.177 3.355.412 5.003l-1.177-.353c-.117-1.236-.235-2.355-.176-3.473a.32.32 0 0 0-.177-.294.65.65 0 0 0-.47 0 .32.32 0 0 0-.177.294c0 1 0 2.06.176 3.237l-8.358-2.648c-1.177-.354-2.295-.766-3.472-1.119-4.061-1.295-8.181-2.648-12.36-3.413l.176-2.943q0-.177-.176-.354a.5.5 0 0 0-.412 0 .4.4 0 0 0-.236.354l-.176 2.766c-.236-.059-.471-.059-.648-.118l.177-5.886q0-.264-.177-.353c-.118-.059-.294-.117-.412 0q-.177.09-.177.353l-.176 5.886c-.177 0-.294-.059-.47-.059.176-1.589.293-3.12.293-4.65q0-.264-.176-.353a.5.5 0 0 0-.412 0 .32.32 0 0 0-.177.295c0 1.06-.059 2.119-.176 3.237-.06-.236-.118-.412-.177-.589.294-1.236.236-2.53.177-3.767v-.706c-.06-1.53-.118-3.12-.236-4.826a.32.32 0 0 0-.176-.295.36.36 0 0 0-.412.06c-.118.058-.177.235-.177.352.118 1.649.177 3.179.235 4.71v.705q.09 1.148 0 2.296c-.117-.236-.294-.471-.412-.706a208 208 0 0 1-.353-12.066c0-.177-.059-.295-.235-.353a.5.5 0 0 0-.412 0 .32.32 0 0 0-.177.294c0 3.531.118 7.18.295 11.006-.177-.176-.412-.412-.648-.588v-.118l-.706-14.715c0-.235-.177-.353-.412-.353-.236 0-.412.177-.412.471l.706 14.067c-.117-.059-.176-.118-.294-.176v-.06c-.471-3.53-.824-7.18-1.06-10.77a.32.32 0 0 0-.176-.295.36.36 0 0 0-.412.06c-.118.058-.177.235-.177.353.236 3.296.589 6.768 1 10.182-.235-.118-.411-.177-.647-.294l-.47-7.181c0-.236-.177-.353-.412-.353-.236 0-.413.176-.413.47l.413 6.77c-.295-.06-.648-.177-1.001-.236-.118-3.708-.353-7.475-.824-11.124 0-.118-.118-.236-.235-.295a.36.36 0 0 0-.412.06q-.177.176-.177.352c.412 3.59.706 7.299.824 10.89h-.53v-.06a62 62 0 0 1-.353-6.592q0-.264-.177-.353a.5.5 0 0 0-.412 0 .32.32 0 0 0-.176.294c0 2.237.118 4.532.353 6.77-.353.058-.765.117-1.177.176-.177-3.12-.294-6.357-.353-9.476 0-.295-.236-.413-.471-.413s-.353.177-.353.354c.059 3.237.176 6.533.353 9.77-.235.118-.471.177-.706.294l-.412-12.83c0-.177-.06-.295-.236-.354a.5.5 0 0 0-.412 0 .32.32 0 0 0-.176.294l.412 13.243v.06c-.177.117-.412.235-.589.352l-.589-7.474a.32.32 0 0 0-.176-.295.36.36 0 0 0-.412.06c-.118.058-.177.235-.177.352l.589 7.946q-.706.618-1.236 1.236l-.412-12.242c0-.295-.236-.412-.471-.412-.236 0-.353.176-.353.353l.412 12.949a2.5 2.5 0 0 1-.648-.118l-.058-8.358c0-.294-.236-.412-.412-.412-.236 0-.354.177-.354.353l.06 8.24c-.119 0-.236-.059-.354-.059s-.177-.058-.294-.058l-.589-8.005c0-.236-.176-.353-.412-.353-.235 0-.412.176-.412.47l.589 7.652-.294-.059-.883-.176a49.6 49.6 0 0 1-.118-7.828.4.4 0 0 0-.412-.413c-.177 0-.412.118-.412.354-.177 2.53-.118 5.12.118 7.651-.177-.059-.354-.117-.53-.117l-.236-.06c-.176-1.942-.353-3.884-.412-5.767a.32.32 0 0 0-.176-.295c-.294-.176-.471-.176-.589-.117s-.176.235-.176.353c.058 1.766.235 3.59.412 5.474-.53-.118-1.06-.295-1.59-.471l-.294-6.534c0-.235-.176-.353-.412-.353-.235 0-.412.177-.412.471l.294 6.18-.235-.059c-.294-.059-.588-.176-.883-.235-.353-3.414-.588-6.886-.647-10.241 0-.295-.236-.412-.471-.412-.236 0-.353.176-.353.353.059 3.355.294 6.71.647 10.064-.235-.058-.412-.117-.647-.176h-.06a201 201 0 0 1-.882-8.358.32.32 0 0 0-.177-.294.36.36 0 0 0-.412.059c-.117.059-.176.235-.176.353.176 2.59.47 5.297.824 8.005-.353-.118-.765-.236-1.118-.354-.589-3.296-1.001-6.65-1.295-9.947 0-.235-.177-.353-.412-.353-.236 0-.412.177-.412.471a91 91 0 0 0 1.236 9.594l-1.178-.353A119 119 0 0 1 13.362 31.9a.32.32 0 0 0-.177-.294.36.36 0 0 0-.412.059c-.117.059-.176.235-.176.353.294 3.237.706 6.592 1.236 9.83l-1.766-.53a203 203 0 0 1-1-10.3c0-.236-.177-.354-.413-.354-.235 0-.412.177-.412.471.177 3.296.53 6.592.942 9.889-.118-.06-.235-.06-.294-.118l-.294-.118c-.236-1.707-.413-3.414-.413-5.062 0-.294-.235-.412-.47-.412-.236 0-.354.177-.354.353.06 1.59.177 3.179.412 4.827-2.766-.824-5.002-1.413-7.121-1.884v-.059L2.06 24.31a5.6 5.6 0 0 0 3.414-1.59c1-1 1.471-2.295 1.412-3.649-.058-1.589-1.118-3.296-2.472-4.179-.941-.588-1.942-.765-2.884-.53.118-4.12 0-8.298-.47-12.418.353.412.706.765 1.118 1.118.059 1.883.235 3.708.47 5.533.06.235.236.353.471.353.177-.06.412-.177.354-.471-.236-1.472-.354-3.06-.471-4.65.176.059.353.236.53.353v.177c.117 2.766.294 5.533.647 8.299 0 .176.176.294.412.294a.4.4 0 0 0 .412-.412c-.294-2.53-.47-5.12-.589-7.71.236.176.53.353.824.53.177 3.413.648 6.827 1.236 10.182 0 .118.118.235.236.294s.294 0 .412-.059c.118-.117.176-.235.118-.353-.589-3.12-1.001-6.298-1.295-9.535.47.294.883.53 1.353.765v.06c.295 3.472.766 6.944 1.354 10.358 0 .118.118.236.236.294.117.06.294 0 .412-.058.117-.118.176-.236.117-.354-.588-3.237-1-6.533-1.295-9.888l.707.353c.117.06.294.118.412.177.059.059.176.059.235.118.236 2.825.53 5.709.883 8.475.059.236.236.354.47.354a.382.382 0 0 0 .354-.471q-.53-3.885-.883-7.946l.177.117c.294.177.588.295.941.412.236 3.473.648 6.946 1.178 10.36.059.235.235.353.412.294.235-.059.412-.236.353-.471-.353-3.178-.765-6.475-1-9.712l1.235.53v.177c.118 2.06.236 4.12.471 6.18 0 .235.177.353.412.353.236 0 .412-.177.412-.471-.177-1.942-.353-3.885-.47-5.886.411.177.764.294 1.176.471h.06c.058 1.766.176 3.532.352 5.18 0 .117.06.235.177.294.118.059.294.059.47-.059.119-.059.177-.235.177-.353-.176-1.53-.235-3.06-.353-4.709a70 70 0 0 0 3.826 1.472c7.77 2.825 15.715 4.885 23.602 6.062 4.473.648 9.064 1.06 13.714 1.177.412 2.178 1.472 4.944 4.356 6.063 2.472 1 5.356.353 7.122-1.648.294-.295.53-.648.765-1.06-.118 1-.118 1.884-.177 2.767 0 .294.236.412.412.412.236 0 .412-.177.412-.354.059-1.648.177-3.355.412-5.12.059-.06.118-.177.177-.236q.176.883.176 1.766c0 .177.06.294.236.353a.5.5 0 0 0 .412 0 .32.32 0 0 0 .176-.294c0-.706-.059-1.354-.235-2.001.412 0 .824 0 1.177.058.176 0 .353 0 .53.06 1.06.058 1.942.117 2.766.176 2.237.177 4.414.706 6.474 1.236 1.354.353 2.767.647 4.18.942.941.176 1.883.294 2.707.412a96 96 0 0 0-1.472 4.296c-.058.177.06.412.295.471.235.06.47 0 .53-.235.47-1.413.941-2.825 1.53-4.473.353.058.706.117 1.06.117L89.7 28.605c-.059.118 0 .236.059.354a.64.64 0 0 0 .412.176c.117 0 .235-.118.294-.235l2.001-5.474h.059c.118 0 .235 0 .353.059l-2.001 5.591c-.059.118 0 .236.059.353.118.118.294.177.412.118.118 0 .235-.118.294-.235l2.06-5.71h.059c.177.06.412.06.589.118l-2.002 5.415a.4.4 0 0 0 .236.471c.176.059.47 0 .53-.235l2-5.474c.118 0 .295.059.413.059l-1.648 5.18c-.06.176.059.411.294.47.236.059.412-.059.53-.235l1.648-5.239c.294.059.588.118.824.236-.412 1.471-.942 2.884-1.413 4.237-.059.118 0 .236.06.295.117.117.234.176.411.117.177 0 .236-.117.294-.235.53-1.354.942-2.707 1.413-4.179.294.118.589.177.824.294a.38.38 0 0 0 .353 0c-.059.707-.647 1.707-1.06 2.296-.117.176-.176.353-.235.47l-.176.354c-.353.647-.707 1.354-1.06 2.06-.765 1.589-1.236 3.002-1.471 4.414-.06 0-.118.06-.177.118-.118.118-.176.235-.294.294-3.826-.588-6.121.177-7.122 2.296m-47.734 6.239c3.06.706 5.474 3.355 5.945 6.592-.06-.06-.118-.118-.177-.118l-1.942-1.59-.353-.235c-1.06-.824-2.12-1.706-3.414-2.118-1.471-.53-3.12-.766-4.767-.766-.766 0-1.53.06-2.237.177 1.942-1.766 4.532-2.53 6.945-1.942M4.061 15.833c1.06.824 1.825 2.296 1.825 3.59-.059 1.825-1.53 3.473-3.414 3.826.883-1.06 1.236-2.53 1.118-4.296-.117-1.884-.588-3.061-1.471-3.65.824-.176 1.471.177 1.942.53m83.226-5.12c-.412 1.177-.236 2.472.412 3.59 1.765 2.825 5.238 3.002 7.887 2.119 1.412 2.177 2.413 4.532 2.942 7.063l-.117-.06c-.059-.058-.177-.058-.236-.058s-.117 0-.235.059c-1.942-.648-3.943-.942-5.65-1.177-.06-.06-.177-.06-.236-.06a55 55 0 0 1-1.177-.176c-1.177-.176-2.472-.294-3.65-.53-1.353-.235-2.766-.588-4.06-.941a32 32 0 0 0-2.531-.589c-1.825-.412-3.885-.647-6.24-.765-.235 0-.47 0-.706-.059-.824-.059-1.648-.117-2.472-.059-.353 0-.706.06-1 .177-3.767-2.884-9.476-4.356-12.772-1.295q-.177.176-.177.353v.118c-15.303-.412-31.136-4.179-45.85-10.889-3.297-1.471-6.77-3.296-9.477-6.121C22.425 3.355 43.084 4.415 63.45 4.65c2.943 0 5.886.059 8.829.059.53 0 1 0 1.589.059 2.119.059 4.297.118 6.18-.765 0 0 .059 0 .059-.06 3.473.59 6.65 2.12 9.24 4.533-1 .412-1.706 1.236-2.06 2.236M69.629 20.07c-.118.235-.176.53-.176.765-.06.294-.118.589-.236.824-.412.942-1.06 1.766-1.942 2.355-1.648 1.177-3.944 1.235-5.768.235-1.648-.942-2.649-2.708-3.12-5.297 0-.06-.059-.118-.059-.177s-.058-.118-.117-.177c2-1.706 5.062-1.294 6.297-1q2.737.618 5.121 2.472m19.364-5.65c-.823-.883-1.118-2.178-.823-3.296.235-.883.882-1.53 1.706-1.884.295 2.178 1.06 5.65 3.12 6.71-1.236 0-2.825-.236-4.002-1.53M90.7 44.026c-1.118-1.177-3.237-3.767-2.413-6.18q.795-2.295 4.238-2.295c.353 0 .765 0 1.177.058-1.766 2.237-3.59 5.121-3.002 8.417"/><path d="M21.895 18.07c-.706 0-1.412.235-1.883.764a.5.5 0 0 0-.412 0c-2.767 1.943-3.002 6.24-2.414 9.3.766 3.59 3.12 6.121 6.18 6.592.354.06.648.06 1.001.06 2.59 0 4.827-1.708 5.474-4.415.706-3.002-.47-6.122-3.59-9.594-1-1-2.472-2.649-4.356-2.708m6.828 13.242c-.471 1.178-1.354 2.06-2.59 2.473-.059-.06-.118-.118-.177-.118-2.59-.707-4.708-2.59-5.944-5.18-1.178-2.53-1.236-5.356-.177-7.769.118 0 .177-.059.235-.118a.45.45 0 0 0 .118-.294v-.236c.118-.235.295-.53.471-.765 0 0 0-.058.059-.058.589-.354 1.59-.295 2.237-.06.765.354 1.412.942 2 1.531 1.531 1.53 2.59 3.002 3.297 4.414 1 2.002 1.177 4.415.47 6.18m-3.767 2.767c-2.943.353-5.65-2.001-6.592-4.65-.942-2.59-1.178-7.004 1-9.3-1.295 2.531-1.354 5.533-.176 8.3 1.177 2.648 3.237 4.708 5.768 5.65M49.735 27.37c-.883.293-1.53.941-1.707 1.883-.588.824-.53 1.883-.47 2.884v.117c.058 1.413.235 3.002 1.294 4.12.707.825 1.766 1.236 2.826 1.236h.47c1.236-.117 2.355-.882 2.943-1.942 1.236-2.236.177-5.768-1.648-7.416-1-.942-2.53-1.295-3.708-.883m-.706 1.588c.353-.588 1-.941 1.707-1-1.53 1.177-2.237 3.06-1.766 4.885.412 1.53 1.354 3.296 2.884 3.943a3.13 3.13 0 0 1-2.825-1.53c-.53-.883-.648-1.883-.706-2.766v-.177c-.06-.647-.118-1.412.117-2.06.06 0 .118-.059.177-.059a.45.45 0 0 0 .118-.294c0-.118 0-.176.059-.235v-.06l.117-.117a.45.45 0 0 0 .118-.294c.059-.059.059-.118 0-.236m4.238 7.416c-.06 0-.118-.058-.177-.058-1.766 0-2.943-1.825-3.414-3.65-.47-1.883.353-3.649 2.06-4.59.766.294 1.472.882 1.943 1.706.941 1.59 1.53 3.885.647 5.415-.235.589-.647.942-1.06 1.177M75.868 44.144l.177-2.943a.4.4 0 0 0-.412-.412c-.177 0-.412.118-.412.353l-.177 2.414c-.235-.118-.47-.295-.706-.412.177-1.884.294-3.826.412-5.768q0-.266-.177-.353c-.117-.06-.294-.118-.412 0a.32.32 0 0 0-.176.294c-.118 1.766-.236 3.649-.412 5.474-.236-.118-.471-.177-.765-.236l.647-7.122c0-.235-.177-.412-.353-.412-.236 0-.412.118-.412.353L72.1 42.32c-.117-.06-.235-.06-.353-.06l.589-7.003c0-.236-.177-.412-.353-.412-.177 0-.412.117-.412.353l-.589 6.886c-.235-.059-.412-.059-.647-.117l.588-6.416c0-.235-.176-.412-.353-.412-.235 0-.412.118-.412.353l-.53 6.416c-.176 0-.294 0-.47-.06l.294-5.944c0-.294-.177-.412-.412-.412-.236 0-.412.118-.412.353l-.295 6.004c-.176 0-.294 0-.47.059.176-1.943.353-3.944.647-5.886 0-.118 0-.294-.118-.353a.36.36 0 0 0-.412-.06c-.117.06-.235.177-.235.295-.294 2.001-.53 4.061-.706 6.063-.118 0-.236.058-.354.058a46 46 0 0 1 .707-5.65c0-.118 0-.235-.118-.353a.36.36 0 0 0-.412-.059c-.177.059-.236.177-.294.294a43 43 0 0 0-.707 5.592c-.058.059-.058.118-.058.235v.236h-.06c.06-3.179.295-6.416.648-9.594 0-.118-.059-.294-.176-.353a.36.36 0 0 0-.412-.06c-.118.06-.236.177-.236.295-.412 3.296-.588 6.592-.647 9.888v.118a.95.95 0 0 0-.412.235c-.236.118-.471.295-.648.412l1.06-10.83c0-.235-.118-.411-.354-.411-.176 0-.411.117-.47.353L62.919 44.38c0 .117.06.235.118.353 0 .235.059.412.177.589 0 .058.059.058.059.117-.06.059-.06.118-.06.236s.06.294.177.353c.53.353 1 .765 1.472 1.177.883.706 1.766 1.471 2.766 2.001.706.353 1.472.648 2.237.824.117.059.176.118.294.177.059.059.177.059.294.059.06 0 .118-.06.177-.118a9.3 9.3 0 0 0 1.707.176c1.648 0 3.884-.47 4.826-1.765.471-.648.589-1.472.294-2.413-.47-.766-.941-1.413-1.589-2.002m.471 3.885c-1.06 1.824-4.532 1.707-6.592 1.177-1.177-.824-2.472-1.942-2.119-3.59.471-2.178 2.708-2.413 4.473-2.237.06 0 .177 0 .236-.059 1 .295 1.766.589 2.413 1 1.118.707 2.413 2.296 1.59 3.709m-12.537-3.002c-.059-.176-.117-.294-.059-.47.177-.59 1.178-1.001 1.53-1.178.59-.294 1.237-.47 1.884-.588.765-.118 1.59-.118 2.531 0h.118c-1.472.294-2.413 1.177-2.825 2.472-.295 1.118-.06 2.119.824 3.12-.942-.53-1.707-1.178-2.59-1.884-.471-.354-.883-.707-1.413-1.06.06-.059.06-.235 0-.412M78.811 26.192c-.118.118-.176.235-.118.412-.882.824-1.412 2.001-1.412 3.178-.059 1.178.412 2.296 1.177 3.179.942 1 2.413 1.53 4.061 1.53h.118c.059 0 .118 0 .177-.059 1.118-.059 2.177-.412 2.884-1 .647-.53 1-1.236 1.118-2.178.176-1.707-.648-3.65-1.59-4.768-1.647-2-4.59-1.648-6.415-.294m1.53 2.708c-.588 1.53-.176 3.355.825 4.59-.766-.176-1.472-.47-1.943-.882-.824-.707-1.236-1.707-1.236-2.767 0-1.118.53-2.177 1.413-2.884.117-.059.176-.176.117-.294 1.178-.706 2.59-.883 3.65-.53-1.177.353-2.472 1.766-2.826 2.767m.707.294c.235-.706 1.236-1.942 2.236-2.354.177-.06.412-.118.589-.118.176 0 .353.059.47.117.06.06.118.06.177.06.824.882 1.648 2.707 1.472 4.237q-.088 1.148-.883 1.766c-.647.47-1.59.765-2.649.765-1.471-.883-1.942-3.002-1.412-4.473M72.808 6.65c-1.707-.235-3.532-.117-5.357.354-.941.236-2.236.648-2.707 2.001-.059.118-.059.236.059.353 0 .766.765 1.53.883 1.648 1.236 1.178 2.648 2.12 4.12 2.708 1.118.412 2.295.647 3.472.647.589 0 1.178-.059 1.707-.176 1.236-.236 2.943-.765 3.414-2.355.236-.941.118-1.824-.412-2.59-1-1.53-3.296-2.413-5.18-2.59m-6.71 2.12c0-.118 0-.236-.118-.294.883-.824 2.766-1.237 5.65-1.119.942 0 3.885.236 5.298 1.766-1.825-.824-4.532-.647-6.298.412-.53.353-.942.942-1 1.707-.06.588.117 1.118.352 1.589a10.4 10.4 0 0 1-1.824-.883c-.53-.294-2.649-2.001-2.59-2.648 0-.06 0-.118.177-.177q.353-.089.353-.353m5.238 1.236c.353-.177 1-.294 1.53-.412l.295-.059c1.177-.235 2.707-.412 4.06.589.06.058.177.058.236.058h.06c.058.118.058.236.117.295.177.765 0 1.353-.47 1.824-1.178 1.178-3.944 1.295-5.475 1-.059 0-.117 0-.176-.058 0-.118-.118-.235-.236-.294-.53-.177-.824-.648-.824-1.177-.118-.707.294-1.413.883-1.766M5.71 28.665a.36.36 0 0 0-.413.059c-.118.058-.176.235-.176.353l.706 9.3c0 .117.059.235.176.293.06 0 .118.06.177.06s.177 0 .235-.06c.118-.058.177-.235.177-.353l-.706-9.3c0-.235-.06-.293-.177-.352M7.651 32.607c-.235 0-.353.177-.353.354 0 2.177.177 4.355.53 6.474 0 .118.118.235.235.294h.177c.118 0 .177-.059.294-.117.118-.118.177-.236.118-.354a37.4 37.4 0 0 1-.53-6.297c-.059-.236-.294-.354-.47-.354M48.617 12.36a8.1 8.1 0 0 1-3.296-.706c-.177-.118-.412 0-.471.176-.118.177-.059.471.176.589 1.06.53 2.178.765 3.355.765h.177c.294 0 .412-.235.412-.47 0-.177-.118-.354-.353-.354M49.559 10.124c-2.12.176-4.18-.353-6.004-1.53-.235-.118-.47-.06-.588.117s-.118.412.117.53c1.766 1.118 3.65 1.707 5.71 1.707.294 0 .588 0 .882-.06.236 0 .353-.176.353-.411 0-.118-.176-.353-.47-.353M48.676 9.065h.117a.45.45 0 0 0 .236-.118.53.53 0 0 0 .176-.412c0-.118-.117-.235-.235-.294-.53-.177-1-.471-1.471-.824-.118-.118-.236-.118-.354-.059a.6.6 0 0 0-.294.353c0 .177 0 .294.118.412.53.412 1.118.765 1.707.942M51.736 5.357a.383.383 0 0 0-.117.53 9.4 9.4 0 0 1 1.294 3.649c.06.235.236.353.413.353h.058c.177-.059.412-.177.353-.471-.235-1.354-.706-2.708-1.412-3.885-.177-.294-.412-.294-.589-.176M53.797 5.298c-.177 0-.295.059-.354.235a.38.38 0 0 0 0 .353 5.86 5.86 0 0 1 .824 3.296q0 .265.177.354c.059.059.176.059.235.059.06 0 .118 0 .177-.06a.32.32 0 0 0 .176-.294c.06-1.353-.294-2.59-.941-3.708 0-.117-.118-.235-.294-.235M55.62 6.18a.383.383 0 0 0-.117.53c.236.413.412.825.471 1.354.059.236.235.354.412.354h.059a.382.382 0 0 0 .353-.471 4.2 4.2 0 0 0-.53-1.59c-.176-.235-.47-.294-.647-.176M60.918 14.068c-1-.236-1.824-.825-2.413-1.707a.383.383 0 0 0-.53-.118c-.176.118-.294.353-.117.588a4.7 4.7 0 0 0 2.825 2.002h.117a.45.45 0 0 0 .295-.118c.117-.118.176-.294.117-.412s-.176-.236-.294-.236M61.213 12.125c-.648-.294-1.178-.706-1.59-1.295-.176-.176-.412-.176-.53-.059-.176.118-.235.354-.058.59a5.5 5.5 0 0 0 1.942 1.53c.059 0 .118.058.177.058.117 0 .294-.059.353-.235 0-.177-.059-.471-.294-.589M62.154 10.182l-.176-.176c-.354-.353-.942-.942-.883-1.413 0-.117 0-.294-.118-.353a.36.36 0 0 0-.412-.059c-.118.06-.235.177-.235.295-.118.706.412 1.294.824 1.706l.117.118c.53.589 1.119 1.118 1.825 1.648.059.059.177.059.235.059a.32.32 0 0 0 .295-.177.45.45 0 0 0-.06-.588q-.882-.441-1.412-1.06M79.812 16.716c-.06.176 0 .294.117.412a.45.45 0 0 0 .236.117h.117c1.943-.53 3.414-1.765 4.297-3.59.118-.177 0-.412-.176-.53-.177-.117-.471-.059-.589.177-.706 1.53-2.06 2.649-3.708 3.12a.7.7 0 0 0-.294.294M84.344 15.892q-.177 0-.353.176a4.5 4.5 0 0 1-1.06 1.06c-.117.058-.176.235-.176.353 0 .176.117.294.235.353.059 0 .118.059.177.059s.117 0 .176-.06c.53-.352 1-.764 1.354-1.294a.5.5 0 0 0 0-.412c-.059-.176-.236-.235-.353-.235M84.05 18.953c.058.177.176.353.353.353h.058a1.66 1.66 0 0 0 1.295-1.177c.06-.118 0-.294-.118-.412s-.294-.177-.412-.118c-.117.06-.235.118-.294.236-.118.353-.353.588-.706.647-.118.059-.236.294-.177.471M90.7 36.198c-1.707.765-2.295 2.943-2.178 4.59 0 .119.06.236.177.295.059 0 .118.06.177.06s.176 0 .235-.06q.177-.088.177-.353c-.118-1.412.412-3.237 1.765-3.826.177-.059.236-.294.177-.47a.435.435 0 0 0-.53-.236M65.215 23.19h-.059c-.824 0-1.707 0-2.53-.235-.943-.353-1.531-1.118-2.12-2-.059-.118-.176-.177-.294-.118-.118 0-.236.117-.294.235a.38.38 0 0 0 0 .353c.588.883 1.236 1.707 2.177 2.119.824.353 1.766.412 2.59.412h.471c.235 0 .353-.177.353-.412.06-.235-.059-.353-.294-.353M63.155 19.13c-.06.117-.118.235-.06.353a.32.32 0 0 0 .295.176 6.1 6.1 0 0 1 3.002 1.178c.059.058.118.058.235.058.118 0 .177-.058.295-.117.117-.118.117-.353-.06-.53-1-.765-2.118-1.177-3.354-1.295-.177.059-.294.059-.353.177"/><path d="M65.98 45.792h.118c.176-.06.294-.236.235-.413-.176-.765-.235-1.353.294-1.53a.46.46 0 0 0 .236-.235c0-.118 0-.236-.118-.353-.118-.118-.235-.118-.353-.06-.53.177-1.118.766-.706 2.296-.06.236.117.294.294.294M89.464 11.714c0-.236-.176-.354-.353-.354-.176 0-.353.118-.353.354 0 .941.353 1.765 1 2.354a.45.45 0 0 0 .236.117h.118c.118-.058.235-.117.235-.235s0-.235-.117-.294c-.471-.648-.766-1.236-.766-1.943M22.72 20.836c-.118-.059-.236-.059-.354-.059-.118.06-.177.177-.235.295 0 .117.058.235.176.294 2.531 1.766 3.885 4.59 3.59 7.651a.45.45 0 0 0 .118.295c.06.059.118.059.236.059.058 0 .117 0 .176-.06a.32.32 0 0 0 .177-.294c.353-3.178-1.119-6.297-3.885-8.18M51.207 29.606a.36.36 0 0 0 0 .47c1 .883 1.295 2.237.824 3.473-.06.118 0 .236.059.353a.45.45 0 0 0 .294.118h.059c.117 0 .235-.118.294-.236.589-1.47.177-3.119-.942-4.178-.235-.177-.47-.118-.588 0M72.513 44.497a.32.32 0 0 0-.294.177.38.38 0 0 0 0 .353.32.32 0 0 0 .294.176c.295 0 .53.118.648.295a1 1 0 0 1 .176.588c-.059.471-.47.706-1.06.942-.117.059-.234.118-.234.294 0 .118 0 .295.117.353.06.06.118.06.177.06h.117c.707-.236 1.59-.648 1.59-1.708 0-.824-.707-1.471-1.53-1.53M79.635 27.429c-.47.117-.588.706-.588 1.06v.117c-.118.647-.06 1.412.058 2.119 0 .117.118.235.236.235h.118c.117 0 .176-.059.235-.117.118-.06.118-.177.118-.295-.118-.47-.118-.941-.118-1.353 0-.648.118-1.001.118-1.119.176-.059.294-.294.235-.412-.059-.176-.235-.235-.412-.235M83.579 32.549c.058 0 .117 0 .176-.059 1.236-.824 1.472-2.296.648-4.414-.06-.177-.236-.236-.413-.177-.176.059-.294.235-.235.47.706 1.767.53 2.944-.412 3.591-.177.118-.177.294-.118.471.118.059.236.118.354.118M4.179 18.482c-.118.059-.177.177-.118.353.177 1.06.177 2.237-.47 3.237-.118.06-.118.177-.06.295.06.117.177.176.295.235h.059a.32.32 0 0 0 .294-.177c.824-1.177.765-2.648.647-3.767 0-.117-.117-.235-.176-.294-.236 0-.353 0-.471.118M3.826 17.01c.059.118.117.236.235.236h.118c.118 0 .177-.059.235-.117.06-.06.118-.177.06-.295a.97.97 0 0 0-.413-.647c-.118-.06-.176-.118-.294-.06-.118.06-.236.178-.236.295 0 .118 0 .236.118.353.118.06.177.118.177.236"/></g><defs><clipPath id="a"><path fill="#fff" d="M0 0h100v62.861H0z"/></clipPath></defs></svg>