<svg xmlns="http://www.w3.org/2000/svg" width="100" height="113" fill="none"><g fill="#2D1310" clip-path="url(#a)"><path d="M7.531 112.273c6.974-6.276 14.924-13.39 22.595-20.781 10.041-.28 20.362.14 27.614 7.81a19.9 19.9 0 0 1 2.79 4.184c1.674 2.79 3.347 5.719 6.137 6.695 1.813.558 3.486.279 4.602-.837s1.674-2.929 1.395-4.742c.14.139.418.279.558.279 1.673.976 3.347 2.092 5.16 2.789 1.813.837 3.347.837 4.603.14 1.115-.698 1.673-1.534 1.813-2.65.279-1.953-.837-3.905-1.813-5.3 2.65.697 5.3 1.116 7.95.976 2.928-.139 6.415-.558 8.089-2.79.976-1.254 1.115-2.789.418-4.323-1.255-2.65-4.881-4.881-7.67-5.3 2.65-2.51 5.16-5.3 1.952-9.344-1.953-2.51-5.16-3.068-7.81-3.347-1.116-.14-2.232-.14-3.348-.14-4.463-.14-8.647-.418-11.994-3.905 12.134-.837 19.665-3.766 23.012-8.926 1.674-2.371 2.092-4.742 1.256-6.974-1.395-4.184-6.695-6.555-9.624-7.53l.837-.42c3.347-1.812 6.834-3.765 6.834-8.368 0-4.044-3.347-6.136-6.555-6.973 1.534-1.255 2.929-3.068 2.65-5.44-.28-1.673-1.395-2.928-3.208-3.626 1.953-2.65 3.487-7.113 2.79-10.32-.419-1.813-1.535-3.208-3.208-3.905-.698-.28-1.256-.419-1.813-.558-.558-.14-1.256-.28-1.953-.698-1.395-.697-1.813-1.673-2.371-2.79a13 13 0 0 0-1.116-1.812C76.29.976 74.06-.14 71.41.139a.77.77 0 0 0-.698.418c-.418.14-.837.28-1.115.28H68.48c-.698 0-1.116.557-1.116 1.115q0 .627.418.837c0 .14-.14.418-.14.558v.279a.77.77 0 0 0-.417.697c0 .418.139.697.418.976v.558h-.14c-.418 0-.697.14-.836.558-.14.28-.14.837.14 1.116.139.279.418.418.696.418-.139.698-.557.837-2.231.977-1.395.139-2.65.279-3.347 1.952-.28.558 0 1.674.279 3.766.279 1.813.697 4.463.279 4.881h-.558c-.837 0-1.813.28-2.51 1.116-.42.558-.42.976-.42 1.395 0 .279 0 .558-.139.837v.697c-1.116.279-1.534.279-1.813.14-.14-.14-.279-.419-.279-.837v-.14c-.14-.279-.14-.697-.14-1.116 0-.418 0-.837-.139-1.115-.418-1.535-1.115-2.65-2.231-3.348-2.092-1.255-4.742-.976-6.416.837-.976.976-1.534 2.232-1.813 3.766-.418.418-.418.976-.418 1.673 0 1.395 0 3.069-.837 3.627-.419.279-1.255.279-2.232-.14a.89.89 0 0 0-.836 0c-.14.14-.419.28-.419.558-1.255 0-2.37.418-3.208 1.255-1.255 1.255-1.673 3.348-1.394 5.858.139 1.395.836 2.65 1.394 3.905.14.14.14.419.28.558-.28.279-.28.558-.28.837 0 .558.419.837.837.976h.279c0 .14.14.28.14.419.278 1.394 0 2.37-.558 3.207-.558.698-1.535.977-2.79.977-.14 0-.14 0-.279.14-.279.278-.558.697-.837.976-1.952-1.116-2.65-2.371-2.092-4.185v-.279c-.14-.139 0-.418 0-.697s0-.697-.14-1.116c-.557-1.115-1.533-1.952-2.37-2.65-.976-.836-1.953-1.534-2.51-2.928-.419-1.116-.698-2.372-.977-3.487-.837-3.347-1.673-6.695-5.3-8.09-.14-.278-.418-.557-.837-.557-2.928-.419-5.578 1.255-6.555 3.905-.697 1.952-.139 4.184.419 6.415.837 3.208 1.534 5.858-1.674 7.532 0 0-.14 0-.14.14h-.139c-.418.139-.837.139-1.255.278-2.231.419-5.16.977-5.997 3.208-.28.837 0 1.534.14 2.092.139.419.278.697.278 1.116v.14c.28.418.419.836-.558 1.533-.14 0-.14.14-.14.28-.139.557-.278.976-.557 1.115-.279.14-.558.14-.976.14h-.28c-.139 0-.278 0-.418.14-.14 0-.418 0-.697.139C.837 51.324.139 52.16 0 53.137v.28c-.279 3.347 4.881 8.228 7.67 10.878.559.558 1.117.977 1.396 1.255l.139.14c-1.395 2.092-1.953 3.905-1.395 5.44.977 3.068 5.16 4.602 9.763 6.275l.419.14c0 .279.14.418.278.558.28.279.558.279.837.279h1.395c4.742 1.813 9.205 4.323 8.647 9.065-7.81 7.671-16.039 15.063-23.71 22.036-.976.837-.697 1.953-.14 2.65.42.558 1.396.837 2.232.14M65.97 99.442q.21 0 0 0c-1.255.418-2.79.558-4.184.558zM11.994 72.384c.14.14.14 0 0 0m3.069 1.674h1.115c-.139 0-.279.14-.418.14-.14 0-.418 0-.697-.14M36.54 84.937v.14c0 .278 0 .557.28.836.278.279.557.418.975.418 4.463-.418 9.066-.418 13.808-.279 2.79 1.535 5.44 3.487 7.81 5.719.28.279.558.418.977.279.418-.14.697-.419.697-.837.14-.418 0-.837-.28-1.116-1.394-1.395-2.928-2.51-4.462-3.766 3.626.419 7.252 1.116 10.879 1.953 1.813 2.79 3.905 5.3 6.276 7.392.279.279.697.279.976.279.418-.14.697-.419.697-.837.14-.418 0-.837-.279-.976-1.673-1.534-3.207-3.208-4.463-4.882.837.28 1.813.558 2.51.837.14.14.42.28.698.28a62 62 0 0 1 7.253 2.649c.418.14.697.14.976-.14.279-.278.558-.697.418-1.115 0-.419-.279-.698-.697-.837a43 43 0 0 0-3.347-1.255c2.092-.28 4.044-.419 5.718-.558.418 0 .697-.14.837-.558.14-.279.14-.837-.14-1.116-.279-.279-.558-.558-.976-.558-3.347.14-6.695.558-10.042 1.116-1.674-.558-3.487-1.116-5.3-1.534l-.14-.14c-.139-.279-.418-.418-.697-.558-.278 0-.557.14-.836.28a69 69 0 0 0-4.603-.977c4.742-.558 9.345-1.534 13.808-2.79.418-.139.558-.278.697-.697.14-.418 0-.836-.279-1.115a1.09 1.09 0 0 0-1.116-.28 92.8 92.8 0 0 1-23.152 3.348h-.279l-.279-.14-.836-.418a1.2 1.2 0 0 0-.977 0c-.279.14-.418.419-.418.558-4.045-.14-7.95 0-11.855.279-.14 0-.14 0-.279.14l1.953-1.953h7.531c.697 0 1.116-.558 1.116-1.255a.953.953 0 0 0-.977-.977h-5.718c.419-.418.837-.837 1.116-1.255 1.395.14 2.51.279 3.487.418.697.14 1.115-.278 1.115-.836 0-.28 0-.698-.139-.837h.418c.698 0 1.116-.558 1.116-1.116s-.418-.976-.976-1.116l-1.953-.14c3.487-3.904 6.695-7.67 9.484-11.575a52 52 0 0 1 5.3-2.092c.14.14.279.14.419.14 4.184.557 8.368 1.394 12.412 2.37.419.14.698 0 .977-.279.278-.279.418-.697.278-1.115a1.26 1.26 0 0 0-.836-.837c-2.51-.558-5.021-1.116-7.95-1.534 4.602-.837 9.484-.977 14.226-.419h.14c.139.14.418.14.557.14l7.253.14c.418 0 .697-.28.837-.559.139-.418.139-.837-.14-1.116s-.558-.557-.976-.418l-6.974.418c-.14 0-.279-.139-.418-.139-.837-.14-1.674-.14-2.51-.279 1.115-.14 2.091-.14 3.207-.279.419 0 .697-.14.837-.558.14-.279.14-.837-.14-1.115-.278-.28-.557-.558-.976-.558-2.79.14-5.718.418-8.507.976-.419.14-.698.418-.837.697v.558c-4.603.28-9.066 1.116-13.39 2.79 3.069-4.185 5.858-8.508 8.369-12.553 4.044-4.184 10.042-6.555 17.991-7.392.419 0 .698-.279.837-.558.14-.418.14-.836-.14-1.115-.278-.28-.557-.419-.975-.419-3.348.28-6.416.977-9.066 1.813 1.953-1.813 3.626-3.347 5.44-4.602.278-.28.418-.558.418-.976 0-.419-.28-.698-.698-.977-.279-.14-.697-.14-.976.14a85 85 0 0 0-9.065 8.228c-.14.14-.28.419-.28.558-.139.14-.418.14-.557.28 1.813-3.209 3.347-6.556 4.742-9.764l8.089-1.813c.418-.14.697-.418.837-.697.14-.419 0-.837-.28-1.116-.278-.279-.557-.418-.976-.279l-.418.14v-.419c-.14-.279-.279-.558-.418-.697h.558c.418 0 .697-.279.836-.558.14-.418.14-.837-.14-1.116-.278-.279-.557-.418-.975-.418h-.28c.42-.279.559-.697.559-1.116a.77.77 0 0 0-.419-.697c.14 0 .28-.14.419-.28.278-.278.278-.836.139-1.115-.14-.279-.418-.558-.837-.558-.697-.14-1.394 0-2.231.28-.28.139-.419.278-.558.557.976-3.068 1.952-6.276 2.79-9.344.139-.558 0-1.116-.42-1.535-.418-.418-1.254-.557-1.812-.418-.698.14-1.116.697-1.395 1.395-.837 3.347-1.813 6.834-3.068 10.181 0-.558.14-.976.14-1.534.139-1.255.557-2.51.836-3.766.418-1.534.837-3.208.976-5.02 0-.698-.558-1.117-1.115-1.117-.558 0-.977.28-1.116.977-.14 1.673-.558 3.207-.977 4.881-.279 1.255-.697 2.51-.836 3.905-.14 1.256-.28 2.65-.28 3.906-.139 1.673-.139 3.347-.557 5.02l-.837-15.48c0-.42-.14-.698-.558-.838-.279-.139-.837-.139-1.116.14s-.558.558-.558.976l.977 19.805c-3.348 7.113-7.392 13.947-12.274 20.92 0-2.231 0-4.602-.14-6.834 1.117-.14 2.093-.14 2.93-.14.418 0 .837-.139.976-.557.279-.418.279-.837 0-1.116q-.21-.418-.837-.418c-1.115 0-2.231 0-3.347.14v-.42l3.766-.278c.418 0 .697-.279.837-.558.139-.418.139-.837-.14-1.116 0-.14-.14-.14-.14-.279h.28c.418 0 .697-.139.976-.558.279-.418.279-.836 0-1.115-.14-.28-.419-.419-.837-.558-1.813 0-3.487.14-5.16.418-.14-.418-.14-.837-.28-1.115.28.279.558.557.977.418l2.37-.418c.42 0 .698-.28.838-.558.14-.28.14-.837-.14-1.116-.279-.279-.558-.558-.976-.419l-2.232.14c-.418 0-.697.279-.836.558 0 .14 0 .14-.14.279-.279-1.534-.697-3.068-1.116-4.463-.14-.558-.697-.837-1.255-.698-.558.14-.976.698-.837 1.395 1.953 7.252 2.79 14.784 2.232 22.315-2.092 2.93-4.463 5.858-6.834 8.787-.28-.14-.558-.279-.837-.14-1.255.28-2.232.419-3.208.698-.279.14-.697.279-.976.418.14-.418.14-.837.279-1.116l3.347-.836q.627-.21.837-.837c.14-.419 0-.837-.279-1.116s-.558-.279-.976-.279l-2.65.698c0-.28 0-.558.14-.698.836-.14 1.673-.14 2.51-.14.697 0 1.115-.557 1.115-.976 0-.557-.279-1.115-.976-1.115h-2.51v-.558q2.092.21 4.184 0c.418 0 .697-.28.837-.558.14-.419.14-.837-.14-1.116-.279-.279-.558-.558-.976-.418q-1.882.21-3.766 0h-.14c0-.558-.139-1.116-.139-1.535-.14-.697-.697-.976-1.255-.836s-.976.557-.976 1.255q.419 2.72 0 5.858c-1.255-2.79-2.51-5.44-3.487-7.95-.14-.419-.418-.558-.837-.697-.418 0-.837.139-1.116.418-.14.14-.14.418-.279.558 0 .14 0 .279.14.558 1.395 3.626 2.929 7.113 4.742 10.6 0 .139.14.139.14.139-.28 1.534-.698 2.929-.977 4.184-.14.418 0 .697.279.976.279.28.697.419 1.116.28q.627-.21.837-.838c.14-.418.279-.837.279-1.394.139.14.279.14.418.279.558.14 1.255-.14 1.395-.837q.21-.21 1.255-.419h.279c.14 0 .279 0 .279-.14-4.184 4.882-8.926 9.903-14.226 15.343-.419-2.79-2.232-5.16-5.021-6.974h4.742c.418 0 .837-.14.976-.558.28-.418.28-.837 0-1.115q-.21-.42-.837-.419H26.64c.14-.279.14-.697 0-.976-.14-.28-.419-.558-.837-.558-1.255-.14-2.371 0-3.626 0-2.092.14-3.905.14-5.858-.418l2.65.139c.697 0 1.116-.558 1.116-1.116s-.28-1.116-.977-1.116c.14-.139.28-.139.419-.278.279-.419.279-.837 0-1.116l-.419-.419c.14-.14.28-.279.28-.558v-.418h.418c.418 0 .697-.14.976-.418.279-.28.279-.837.14-1.116-.14-.28-.419-.558-.837-.558l-3.627-.418c.698 0 1.116-.558 1.116-1.116a.953.953 0 0 0-.976-.976h-3.905c-.698 0-1.116.557-1.116 1.115v.14c0 .558.418.976.976.976h.419c-.14.14-.28.418-.28.697 0 .28 0 .419.14.698h-.558c-.697 0-1.115.558-1.115 1.115 0 .419.279.837.557.977h-.139c-.418 0-.697.279-.837.558-.697-1.395-.697-3.069.419-4.463.279-.28.279-.698.139-.977a1.9 1.9 0 0 0-.418-.557c0-.28 0-.419-.28-.698.698.14 1.256.14 1.814.14.697 0 1.116-.558 1.116-1.116s-.419-.977-.977-1.116c-1.255 0-2.65-.279-3.905-.558-.279 0-.418 0-.697.14-.14-.14-.419-.28-.558-.558.697 0 1.534 0 2.231.14.698.139 1.116-.42 1.116-.977.14-.558-.279-1.116-.976-1.255a15.8 15.8 0 0 0-3.626 0 .77.77 0 0 0-.698.418c-.418-.418-.837-.837-1.115-1.255.278-.14.418-.279.697-.558.14-.279.279-.558.14-.976l1.394.14c.697.139 1.116-.42 1.116-.977 0-.558-.28-1.116-.976-1.255l-4.324-.558c-.279-.977-.14-1.395 0-1.534.14-.28.697-.28 1.395-.28.836 0 1.813 0 2.65-.557.976-.558 1.394-1.255 1.534-2.51v-.28c0-.697-.14-.976-.28-1.255-.139-.14-.139-.14-.139-.837 0-3.347 1.395-3.626 4.184-4.184l.837-.14c.14 0 .28-.139.28-.139.139 0 .278 0 .418-.14 1.673-.836 2.928-2.091 3.486-3.625.14 12.83 4.603 24.686 8.787 33.89.279.698.976.698 1.395.559.418-.28.837-.698.558-1.395-.14-.279-.28-.697-.419-.976l4.045.279c.697 0 1.116-.558 1.116-.977 0-.558-.28-1.115-.977-1.115l-4.602-.28c-.14 0-.28 0-.419.14-.279-.697-.558-1.395-.836-1.952 1.813.279 3.626.418 5.16.558.697 0 1.116-.558 1.116-.977 0-.558-.28-1.116-.977-1.116-2.092-.14-4.184-.418-6.276-.697l-.14-.279c1.953.14 4.045.279 5.998.279q.627 0 .837-.418c.14-.28.14-.837 0-1.116-.28-.419-.558-.558-.977-.558-2.092 0-4.323-.14-6.555-.279-.14-.279-.279-.697-.418-.976l5.718-.14c.419 0 .698-.14.976-.418.28-.279.28-.837.14-1.116s-.418-.558-.837-.558l-5.718-.418c-.14 0-.279 0-.558.14-.14-.28-.14-.559-.279-.838.14 0 .14.14.279.14 1.813.279 3.766.418 5.579.418.697 0 1.116-.558 1.116-1.115 0-.419-.28-.837-.698-.977.28 0 .698 0 .837-.279.279-.279.279-.697.14-1.115-.14-.419-.419-.558-.837-.698-.14 0-.419 0-.558-.14a.77.77 0 0 0 .418-.697c0-.279 0-.557-.14-.697a.77.77 0 0 0-.697-.418l-5.16-.698c-.418 0-.697.14-.976.419-.14.14-.28.418-.28.558s0 .418.14.557c.14.28.419.558.837.558l.837.14c-.279.14-.419.558-.558.837 0 .558.279 1.115.976 1.115 1.395.14 2.93.28 4.324.558-1.674-.14-3.487-.279-5.16-.418-.419 0-.837.14-.977.558-.837-2.93-1.534-5.858-1.952-8.508.14.14.418.28.558.28 2.092-.14 4.044 0 6.136 0q.628 0 .837-.42c.14-.278.14-.836 0-1.115-.279-.418-.558-.558-.976-.558-1.813 0-3.626-.14-5.44-.279-.558-.14-.836.14-1.115.558-.14-.976-.28-2.092-.419-3.068.698 0 1.256 0 1.953.14.418 0 .697 0 .976-.28.279-.279.279-.697.14-1.116-.14-.418-.419-.558-.837-.697-.698-.14-1.534-.14-2.371-.14-.14-3.068-.14-5.997.14-8.925 0-.698-.42-1.116-.977-1.116-.558 0-1.116.279-1.116.976 0 .558-.14 1.116-.14 1.534v.837c-.139-.279-.139-.697-.278-.976l-.14-.558c-.837-2.371-.976-5.579.14-7.253q.837-1.045 2.51-1.255c.14.14.28.14.419.28 4.184.975 4.742 4.323 5.16 7.81.279 1.673.418 3.486 1.116 4.88.558 1.117 1.255 1.396 1.952 1.814.419.279.837.418 1.256.837.557.697.697 2.092.697 3.626.14 2.79.418 6.137 3.626 5.997 1.255 0 1.953-.697 2.65-1.395.558-.557 1.255-1.255 2.232-1.394.418-.14.697 0 1.115 0 .558.14 1.256.14 2.092-.419 1.953-1.394.977-3.765.698-4.602-.14-.419-.419-.837-.698-1.255 2.093 0 4.324-.28 6.416-.977.697-.279.837-.836.558-1.255-.14-.558-.697-.976-1.395-.697-2.231.837-4.602.976-7.113.697-.14-.279-.279-.697-.558-1.255l5.858.14c.418 0 .837-.14.976-.558.28-.419.28-.837 0-1.116q-.21-.42-.836-.419h-3.348c1.116-.14 2.092-.279 3.208-.418.697-.14.976-.697.837-1.255-.14-.558-.558-.977-1.255-.837a49.5 49.5 0 0 1-6.555.837c-.14-1.395-.14-3.069.976-3.766.14.14.418.14.697.14l2.79-.28c.279 0 .418-.139.558-.278 2.37.418 3.486-.698 4.044-1.674.419-.976.28-2.232.14-3.347-.14-.698-.14-1.395-.14-1.953.28-1.813 1.395-3.905 3.905-4.044 2.092-.14 2.371 1.394 2.51 3.626 0 .418.14.697.14.976.14 1.255.698 4.463 3.627 4.463 2.231 0 2.51-1.813 2.789-3.208.279-1.534.558-2.51 1.813-2.65 1.534.14 2.65-.697 3.068-2.092.28-.976 0-1.813-.14-2.65l-.418-.837c0-.139-.139-.279-.139-.418l-.837-1.534 2.232-2.929c.418-.279.837-.279 1.255-.279s.837 0 1.255-.279c1.813 0 4.045.14 6.416.14.697 0 1.116-.558 1.116-1.116a.953.953 0 0 0-.977-.976c-1.813 0-3.626 0-5.44-.14v-.418h2.372c.697 0 1.116-.558 1.116-1.116a.953.953 0 0 0-.977-.976h-2.789v-.28l2.092-.697a.953.953 0 0 0 .976-.976c0-.558-.418-1.116-1.115-1.116h-1.116c.418-.418.976-.837 1.952-1.115 3.069.139 3.906 2.092 4.742 4.323.698 1.813 1.534 3.626 3.487 4.463.837.28 1.674.28 2.232.28 1.115 0 1.952 0 3.068 1.952 1.674 3.068 0 6.973-2.371 9.484-.14.14-.14.14-.14.279-.418.278-.697.697-.557 1.115 0 .558.418.837.976.837 1.255 0 3.208.698 3.208 2.65-.14 1.674-1.674 2.929-2.93 3.905l-.139.14c-.279.279-.418.558-.418.976 0 .279.279.697.558.837.14.418.418.697.837.697 2.51.28 4.602 1.534 5.579 3.208.557 1.534.418 3.068-.419 4.742-1.116 2.092-3.068 3.068-5.16 4.045-.977.418-1.813.976-2.79 1.534q-.418.418-.418.837c0 .418.279.697.558.836.14.14.279.419.558.419 3.486.976 9.484 2.65 10.042 7.392.418 3.208-2.79 6.415-4.882 7.67-.976.559-2.092 1.116-3.347 1.535-4.324 1.673-9.205 2.65-14.645 3.068-.279-.279-.697-.418-1.115-.279-.28.14-.558.14-.837.28-.14 0-.419.139-.558.139h-.697q-.628 0-.837.418c-5.021 1.674-10.042 2.65-15.063 3.208-.418 0-.697.279-.837.558-.14.418-.14.837.14 1.115.279.28.558.419.976.419q8.368-.837 16.736-3.766h.14c0 .28.14.418.279.698 2.231 2.65 5.02 4.323 8.786 5.02 1.674.28 3.208.28 4.742.28 1.256 0 2.51 0 3.766.139h.14c1.255.14 4.742.558 5.439 1.674.837 1.534-.558 6.834-1.813 7.95-.28.278-.419.557-.28.975 0 .28.28.558.42.698 0 .279.139.558.278.697.28.837.558.977.976.977 1.814-.14 5.3 1.534 6.137 3.486l-.279 3.348a6.2 6.2 0 0 1-2.231.836c-.698.14-1.395.28-2.371.419-3.627.418-7.253-.14-11.019-1.534-.418-.14-.697-.14-.976.14-.279.278-.418.696-.418 1.115 0 .279.14.418.279.558 0 .14-.14.279-.14.418 0 .14 0 .418.28.697l.278.14c.977.976 2.371 2.51 2.232 3.766-.14.836-.419 1.394-.977 1.673-.697.419-1.673.279-2.789-.139-1.674-.698-3.208-1.674-4.742-2.65l-2.092-1.255c-.418-.279-.976-.14-1.255.279-.28.279-.28.836-.14 1.255-.279.279-.418.558-.418.976-1.674 1.953-3.208 2.79-4.184 2.65-.698-.139-1.255-.837-1.813-1.953 1.813-.278 3.626-.557 5.3-.976.697-.139.976-.837.836-1.395-.14-.557-.558-.976-1.115-.836-1.953.418-3.906.836-5.858 1.115h-.28l-.418-.557c1.814-.14 3.766-.419 5.44-1.116.697-.279.837-.837.558-1.255-.14-.558-.698-.977-1.395-.698-.418.14-.837.28-1.116.419.558-.14.698-.698.698-1.116 0-.558-.558-1.116-1.256-.976l-5.02.557a.77.77 0 0 0-.698.419c-.279-.28-.418-.558-.697-.697l3.068-.419c.418 0 .697-.279.837-.697.14-.419.14-.837-.14-1.116-.279-.279-.557-.418-.976-.418l-3.766.558a.77.77 0 0 0-.697.418 31.5 31.5 0 0 0-5.02-3.347C46.024 89.4 38.772 89.12 32.216 89.12c1.535-1.395 2.93-2.79 4.324-4.184M77.127 28.45c-.558 0-1.116.14-1.674.14 0 0 0-.14.14-.14h1.534m-.14-4.044c.14-.28.14-.698.28-.977 0 .28.139.698.418.837z"/><path d="M21.757 50.488c0 .558.28 1.116.977 1.116l4.184.279c.697 0 1.115-.558 1.115-1.116s-.279-.976-.976-1.116l-4.184-.279c-.697 0-1.116.558-1.116 1.116M43.236 57.88c0 .14-.14.279-.14.418 0 .28 0 .558.14.698.279.279.558.557.976.418l2.231-.14c.419 0 .698-.278.837-.557.14-.419.14-.837-.14-1.116-.278-.279-.557-.558-.976-.418l-2.231.139c-.279 0-.558.279-.697.558M82.287 20.92c.698-.28.698-.976.558-1.395-.14-.558-.697-.837-1.395-.558l-1.255.558c-.418.14-.558.419-.697.837 0 .418.14.837.418.976.28.28.698.28.977.14zM39.052 31.38v.28c0 .279 0 .558.279.836.278.28.557.419.976.28 1.673-.28 3.347-.419 5.02-.559.42 0 .698-.278.837-.557.14-.28.14-.837-.139-1.116s-.558-.558-.976-.558c-1.674.14-3.347.279-5.021.558-.558.279-.837.418-.977.837"/></g><defs><clipPath id="a"><path fill="#fff" d="M100 112.691H0V-.001h100z"/></clipPath></defs></svg>